{
	"asset":
	{
		"version": "2.0",
		"generator": "Unreal Engine 5.7.4"
	},
	"scene": 0,
	"accessors": [
		{
			"bufferView": 0,
			"count": 42,
			"type": "MAT4",
			"componentType": 5126
		},
		{
			"bufferView": 1,
			"count": 20130,
			"type": "SCALAR",
			"componentType": 5123
		},
		{
			"bufferView": 2,
			"count": 5872,
			"type": "VEC3",
			"componentType": 5126,
			"min": [
				-0.277613819,
				0.00206522411,
				-0.730864227
			],
			"max": [
				0.277613819,
				1.31939256,
				0.954123974
			]
		},
		{
			"bufferView": 3,
			"count": 5872,
			"type": "VEC3",
			"componentType": 5126
		},
		{
			"bufferView": 4,
			"count": 5872,
			"type": "VEC4",
			"componentType": 5126
		},
		{
			"bufferView": 5,
			"count": 5872,
			"type": "VEC2",
			"componentType": 5126
		},
		{
			"bufferView": 6,
			"count": 5872,
			"type": "VEC2",
			"componentType": 5126
		},
		{
			"bufferView": 7,
			"count": 5872,
			"type": "VEC4",
			"componentType": 5121
		},
		{
			"bufferView": 8,
			"count": 5872,
			"type": "VEC4",
			"componentType": 5121,
			"normalized": true
		}
	],
	"buffers": [
		{
			"uri": "MuleDeer_F.bin",
			"byteLength": 418756
		}
	],
	"bufferViews": [
		{
			"buffer": 0,
			"byteLength": 2688
		},
		{
			"buffer": 0,
			"byteLength": 40260,
			"byteOffset": 2688,
			"target": 34963
		},
		{
			"buffer": 0,
			"byteLength": 70464,
			"byteOffset": 42948,
			"target": 34962
		},
		{
			"buffer": 0,
			"byteLength": 70464,
			"byteOffset": 113412,
			"target": 34962
		},
		{
			"buffer": 0,
			"byteLength": 93952,
			"byteOffset": 183876,
			"target": 34962
		},
		{
			"buffer": 0,
			"byteLength": 46976,
			"byteOffset": 277828,
			"target": 34962
		},
		{
			"buffer": 0,
			"byteLength": 46976,
			"byteOffset": 324804,
			"target": 34962
		},
		{
			"buffer": 0,
			"byteLength": 23488,
			"byteOffset": 371780,
			"target": 34962
		},
		{
			"buffer": 0,
			"byteLength": 23488,
			"byteOffset": 395268,
			"target": 34962
		}
	],
	"images": [
		{
			"uri": "MuleDeer_F_Material_BaseColor.png"
		},
		{
			"uri": "MuleDeer_F_Material_MetallicRoughness.png"
		},
		{
			"uri": "MuleDeer_F_Material_Normal.png"
		}
	],
	"materials": [
		{
			"name": "MuleDeer_F_Material",
			"pbrMetallicRoughness":
			{
				"baseColorTexture":
				{
					"index": 0
				},
				"metallicRoughnessTexture":
				{
					"index": 1
				}
			},
			"normalTexture":
			{
				"index": 2
			}
		}
	],
	"meshes": [
		{
			"name": "MuleDeer_F",
			"primitives": [
				{
					"attributes":
					{
						"POSITION": 2,
						"NORMAL": 3,
						"TANGENT": 4,
						"TEXCOORD_0": 5,
						"TEXCOORD_1": 6,
						"JOINTS_0": 7,
						"WEIGHTS_0": 8
					},
					"indices": 1,
					"material": 0
				}
			]
		}
	],
	"nodes": [
		{
			"skin": 0,
			"mesh": 0,
			"children": [
				1
			]
		},
		{
			"name": "RigRoot",
			"children": [
				2
			]
		},
		{
			"name": "RigPelvis",
			"translation": [
				-8.15623622e-08,
				0.903334379,
				-0.489874899
			],
			"rotation": [
				-0.707106829,
				-0.707106709,
				5.33850582e-08,
				5.33850688e-08
			],
			"children": [
				3,
				7,
				35,
				39
			]
		},
		{
			"name": "RigLBLeg1",
			"translation": [
				0.000819872657,
				0.10959433,
				-0.00140001043
			],
			"rotation": [
				-0.0452871174,
				-0.0163467191,
				0.998653829,
				-0.0192983933
			],
			"children": [
				4
			]
		},
		{
			"name": "RigLBLeg2",
			"translation": [
				0.291267782,
				-4.04193123e-10,
				-3.76786353e-08
			],
			"rotation": [
				-3.65704182e-05,
				0.436566144,
				-0.000248119351,
				-0.899672151
			],
			"children": [
				5
			]
		},
		{
			"name": "RigLBLeg3",
			"translation": [
				0.260693789,
				1.61508194e-06,
				1.91889831e-06
			],
			"rotation": [
				-0.000733827066,
				-0.412473798,
				-0.00191093876,
				-0.910967171
			],
			"children": [
				6
			]
		},
		{
			"name": "RigLBLegAnkle",
			"translation": [
				0.308092982,
				-7.55347457e-07,
				-5.64935874e-07
			],
			"rotation": [
				-0.0126475953,
				-0.314744025,
				0.0447199717,
				-0.948038161
			]
		},
		{
			"name": "RigSpine1",
			"translation": [
				0,
				-2.37814586e-08,
				-0.1574976
			],
			"rotation": [
				-6.04013337e-08,
				-0.727323651,
				1.31881748e-07,
				-0.686294615
			],
			"children": [
				8
			]
		},
		{
			"name": "RigSpine2",
			"translation": [
				0.16158779,
				6.68007918e-15,
				-2.89668662e-08
			],
			"rotation": [
				1.47992267e-08,
				-0.00486395229,
				1.60550275e-08,
				-0.999988198
			],
			"children": [
				9
			]
		},
		{
			"name": "RigSpine3",
			"translation": [
				0.161587805,
				-9.64079856e-15,
				1.84248705e-08
			],
			"rotation": [
				-2.87635995e-08,
				0.00486393785,
				-3.09992068e-08,
				-0.999988198
			],
			"children": [
				10
			]
		},
		{
			"name": "RigChest",
			"translation": [
				0.161587849,
				7.67307196e-09,
				-2.20314469e-08
			],
			"rotation": [
				8.96052743e-09,
				0.029011935,
				-2.42877025e-08,
				-0.999579072
			],
			"children": [
				11,
				16,
				30
			]
		},
		{
			"name": "RigLFLegCollarbone",
			"translation": [
				0.0030759098,
				0.0414764509,
				0.13262184
			],
			"rotation": [
				0.346030921,
				-0.384959102,
				-0.326750904,
				-0.790760994
			],
			"children": [
				12
			]
		},
		{
			"name": "RigLFLeg1",
			"translation": [
				0.273364127,
				-7.75500819e-09,
				-8.41679011e-08
			],
			"rotation": [
				-0.692467213,
				-0.149726823,
				0.548000932,
				0.444708884
			],
			"children": [
				13
			]
		},
		{
			"name": "RigLFLeg2",
			"translation": [
				0.222645342,
				2.2119016e-08,
				-9.62861577e-08
			],
			"rotation": [
				2.97976148e-05,
				-0.403550208,
				8.72533055e-05,
				-0.914957523
			],
			"children": [
				14
			]
		},
		{
			"name": "RigLFLeg3",
			"translation": [
				0.278438628,
				-6.76149796e-07,
				-1.56661663e-05
			],
			"rotation": [
				-8.46262774e-05,
				0.0748569295,
				0.00166196388,
				-0.997192919
			],
			"children": [
				15
			]
		},
		{
			"name": "RigLFLegAnkle",
			"translation": [
				0.210381344,
				9.05707438e-08,
				9.00731379e-07
			],
			"rotation": [
				0.0376191661,
				-0.331633508,
				0.0321767591,
				-0.94210875
			]
		},
		{
			"name": "RigNeck1",
			"translation": [
				0.187623039,
				-2.96038447e-08,
				-0.0468943045
			],
			"rotation": [
				5.15525329e-08,
				0.227863118,
				-4.04386533e-08,
				-0.973693192
			],
			"children": [
				17
			]
		},
		{
			"name": "RigNeck2",
			"translation": [
				0.134079069,
				-2.23381011e-15,
				-6.9405651e-08
			],
			"rotation": [
				-4.88949894e-08,
				0.114109352,
				5.2490158e-08,
				-0.993468285
			],
			"children": [
				18
			]
		},
		{
			"name": "RigNeck3",
			"translation": [
				0.136114731,
				2.33590037e-14,
				2.28422756e-08
			],
			"rotation": [
				6.16584401e-08,
				-0.00686216354,
				-7.01854086e-09,
				-0.999976456
			],
			"children": [
				19
			]
		},
		{
			"name": "RigHead",
			"translation": [
				0.134411365,
				1.81164559e-08,
				9.8172201e-08
			],
			"rotation": [
				-9.64952118e-09,
				-0.0188549459,
				-4.07631724e-08,
				-0.999822319
			],
			"children": [
				20,
				24,
				25,
				26,
				27,
				28,
				29
			]
		},
		{
			"name": "RigJaw1",
			"translation": [
				0.0578202866,
				-9.17037379e-09,
				-0.0100167608
			],
			"rotation": [
				-6.5263805e-08,
				-0.622514546,
				9.52106873e-08,
				-0.782608271
			],
			"children": [
				21
			]
		},
		{
			"name": "RigTongue1",
			"translation": [
				0.101026431,
				-4.73029527e-09,
				-0.0066948235
			],
			"rotation": [
				5.85317439e-09,
				0.113203235,
				1.88111615e-09,
				-0.993571877
			],
			"children": [
				22
			]
		},
		{
			"name": "RigTongue2",
			"translation": [
				0.0608025193,
				-1.41337995e-16,
				7.80302969e-08
			],
			"rotation": [
				1.29693367e-08,
				-0.0348995067,
				9.41785583e-09,
				-0.999390841
			],
			"children": [
				23
			]
		},
		{
			"name": "RigTongue3",
			"translation": [
				0.0367139019,
				2.91702398e-16,
				2.53202925e-09
			],
			"rotation": [
				-5.04915665e-09,
				-0.0261769909,
				-6.75050371e-09,
				-0.999657333
			]
		},
		{
			"name": "RigLEar1",
			"translation": [
				0.102958053,
				0.0918643251,
				0.0970250219
			],
			"rotation": [
				-0.0690888986,
				0.269932866,
				-0.582661033,
				-0.763458669
			]
		},
		{
			"name": "RigREar1",
			"translation": [
				0.102958217,
				-0.0918643326,
				0.0970249027
			],
			"rotation": [
				0.0690888911,
				0.269932806,
				0.582661092,
				-0.76345861
			]
		},
		{
			"name": "RigLEye1",
			"translation": [
				0.132647559,
				0.066421546,
				-0.0154975243
			],
			"rotation": [
				-0.123508416,
				-0.420035362,
				-0.508247137,
				-0.741620421
			]
		},
		{
			"name": "RigREye1",
			"translation": [
				0.132647559,
				-0.0664215535,
				-0.0154976202
			],
			"rotation": [
				0.123508364,
				-0.420035392,
				0.508247137,
				-0.741620362
			]
		},
		{
			"name": "RigLEyelid1",
			"translation": [
				0.130806297,
				0.066421628,
				-0.0179858413
			],
			"rotation": [
				-0.347658992,
				-0.0226995423,
				-0.390771955,
				-0.852006614
			]
		},
		{
			"name": "RigREyelid1",
			"translation": [
				0.130806103,
				-0.066421628,
				-0.0179858003
			],
			"rotation": [
				0.347658932,
				-0.0226996299,
				0.390772045,
				-0.852006555
			]
		},
		{
			"name": "RigRFLegCollarbone",
			"translation": [
				0.00307589979,
				-0.0414764397,
				0.132621855
			],
			"rotation": [
				-0.34603101,
				-0.384959042,
				0.326751024,
				-0.790760934
			],
			"children": [
				31
			]
		},
		{
			"name": "RigRFLeg1",
			"translation": [
				0.273364216,
				-1.85269542e-08,
				2.06054864e-07
			],
			"rotation": [
				-0.69246912,
				0.149733037,
				0.547995448,
				-0.444710642
			],
			"children": [
				32
			]
		},
		{
			"name": "RigRFLeg2",
			"translation": [
				0.222645029,
				-2.06384509e-08,
				2.02022523e-08
			],
			"rotation": [
				-2.67291016e-05,
				-0.403548628,
				-7.55014407e-05,
				-0.914958179
			],
			"children": [
				33
			]
		},
		{
			"name": "RigRFLeg3",
			"translation": [
				0.278439045,
				6.62163643e-07,
				-1.56259121e-05
			],
			"rotation": [
				7.7320954e-05,
				0.0751009658,
				-0.00167442136,
				-0.997174621
			],
			"children": [
				34
			]
		},
		{
			"name": "RigRFLegAnkle",
			"translation": [
				0.210381269,
				9.32438038e-09,
				-2.2918234e-09
			],
			"rotation": [
				-0.0376037396,
				-0.332091838,
				-0.0321319774,
				-0.941949308
			]
		},
		{
			"name": "RigRBLeg1",
			"translation": [
				0.000819836976,
				-0.10959436,
				-0.00139997737
			],
			"rotation": [
				-0.043024797,
				0.0162832513,
				0.998755336,
				0.0192733873
			],
			"children": [
				36
			]
		},
		{
			"name": "RigRBLeg2",
			"translation": [
				0.291267723,
				-1.08503213e-10,
				-9.06283404e-09
			],
			"rotation": [
				2.66928673e-05,
				0.434674829,
				0.000267290772,
				-0.90058744
			],
			"children": [
				37
			]
		},
		{
			"name": "RigRBLeg3",
			"translation": [
				0.260693818,
				-1.61434286e-06,
				1.78821676e-06
			],
			"rotation": [
				0.000974723545,
				-0.414602667,
				0.00195823656,
				-0.909999907
			],
			"children": [
				38
			]
		},
		{
			"name": "RigRBLegAnkle",
			"translation": [
				0.308092862,
				-6.74328874e-07,
				4.76186301e-07
			],
			"rotation": [
				0.012578683,
				-0.312671542,
				-0.044846382,
				-0.948718667
			]
		},
		{
			"name": "RigTail1",
			"translation": [
				0.0674186051,
				1.23834329e-08,
				0.150975257
			],
			"rotation": [
				4.46456383e-08,
				0.806444645,
				-1.27165674e-08,
				-0.591309607
			],
			"children": [
				40
			]
		},
		{
			"name": "RigTail2",
			"translation": [
				0.0403955691,
				-3.81161235e-14,
				3.35511352e-08
			],
			"rotation": [
				-5.12978531e-08,
				0.30070585,
				3.65551571e-08,
				-0.953716934
			],
			"children": [
				41
			]
		},
		{
			"name": "RigTail3",
			"translation": [
				0.0403954871,
				-2.63713866e-14,
				-1.5320234e-08
			],
			"rotation": [
				6.61987842e-09,
				0.271440476,
				-5.9261243e-08,
				-0.962455332
			],
			"children": [
				42
			]
		},
		{
			"name": "RigTail4",
			"translation": [
				0.0807637423,
				-6.77785261e-14,
				1.61448224e-08
			],
			"rotation": [
				-1.82009341e-09,
				0.030538518,
				5.48410317e-10,
				-0.999533594
			]
		}
	],
	"samplers": [
		{
			"minFilter": 9987,
			"magFilter": 9729
		}
	],
	"scenes": [
		{
			"nodes": [
				0
			]
		}
	],
	"skins": [
		{
			"name": "MuleDeer_F",
			"inverseBindMatrices": 0,
			"skeleton": 0,
			"joints": [
				1,
				2,
				3,
				4,
				5,
				6,
				7,
				8,
				9,
				10,
				11,
				12,
				13,
				14,
				15,
				16,
				17,
				18,
				19,
				20,
				21,
				22,
				23,
				24,
				25,
				26,
				27,
				28,
				29,
				30,
				31,
				32,
				33,
				34,
				35,
				36,
				37,
				38,
				39,
				40,
				41,
				42
			]
		}
	],
	"textures": [
		{
			"name": "MuleDeer_F_Material_BaseColor",
			"sampler": 0,
			"source": 0
		},
		{
			"name": "MuleDeer_F_Material_MetallicRoughness",
			"sampler": 0,
			"source": 1
		},
		{
			"name": "MuleDeer_F_Material_Normal",
			"sampler": 0,
			"source": 2
		}
	]
}